<?xml version="1.0" encoding="iso-8859-1"?>
<!-- Generator: Adobe Illustrator 19.0.0, SVG Export Plug-In . SVG Version: 6.00 Build 0)  -->
<svg version="1.1" id="Layer_1" xmlns="http://www.w3.org/2000/svg" xmlns:xlink="http://www.w3.org/1999/xlink" x="0px" y="0px"
	 viewBox="0 0 512.001 512.001" style="enable-background:new 0 0 512.001 512.001;" xml:space="preserve">
<path style="fill:#EB4E49;" d="M132.848,91.338c0-39.05,55.137-70.707,123.152-70.707s123.152,31.656,123.152,70.707H132.848z"/>
<rect x="232.911" y="10.263" style="fill:#747D8C;" width="46.182" height="68.76"/>
<path style="fill:#EB4E49;" d="M117.453,227.057c-51.58-15.022-84.666-38.246-84.666-64.309c0-45.296,99.936-82.016,223.213-82.016
	s223.213,36.72,223.213,82.016c0,26.063-33.086,49.286-84.666,64.309H117.453z"/>
<polygon style="fill:#FAC51C;" points="348.143,375.322 385.601,412.782 297.308,501.075 255.871,459.639 "/>
<path style="fill:#EFEFEF;" d="M332.63,391.681l45.141-53.329c10.912-15.372,16.774-33.757,16.774-52.608V172.754
	c0-15.115-12.253-27.367-27.367-27.367H144.821c-15.115,0-27.367,12.253-27.367,27.367v112.989c0,18.851,5.862,37.236,16.774,52.608
	l45.141,53.329L332.63,391.681L332.63,391.681z"/>
<path style="fill:#747D8C;" d="M158.504,186.439v53.879c0,8.03,6.51,14.539,14.539,14.539h53.409c4.983,0,9.023-4.039,9.023-9.023
	l0,0c0-4.983,4.039-9.023,9.023-9.023h23.006c4.983,0,9.023,4.039,9.023,9.023l0,0c0,4.983,4.039,9.023,9.023,9.023h53.409
	c8.03,0,14.539-6.51,14.539-14.539v-53.879L158.504,186.439L158.504,186.439z"/>
<path style="fill:#FBA026;" d="M255.999,458.399c-42.441,0-76.97-34.529-76.97-76.97s34.529-76.97,76.97-76.97
	s76.97,34.529,76.97,76.97S298.441,458.399,255.999,458.399z"/>
<rect x="334.167" y="452.183" transform="matrix(-0.7071 0.7071 -0.7071 -0.7071 939.753 556.1571)" style="fill:#EFEFEF;" width="41.05" height="41.05"/>
<g>
	<path style="fill:#231F20;" d="M489.475,162.748c0-26.526-25.606-50.544-72.1-67.627c-8.844-3.25-18.285-6.196-28.213-8.835
		c-2.007-20.755-16.37-39.723-40.97-53.846c-16.636-9.551-36.862-16.202-58.838-19.553v-2.624C289.354,4.595,284.76,0,279.091,0
		H232.91c-5.668,0-10.263,4.595-10.263,10.263v2.625c-21.975,3.352-42.202,10.002-58.838,19.553
		c-24.601,14.123-38.962,33.091-40.97,53.846c-9.928,2.64-19.369,5.585-28.213,8.835c-46.495,17.083-72.1,41.101-72.1,67.627
		c0,29.238,29.997,54.624,84.667,71.907v51.088c0,21.098,6.455,41.344,18.668,58.548c0.168,0.237,0.347,0.468,0.535,0.69
		l43.728,51.659c6.89,38.999,39.761,69.126,80.041,71.804l39.888,39.888c2.004,2.004,4.631,3.006,7.257,3.006
		c2.626,0,5.253-1.002,7.257-3.006l21.107-21.107l21.77,21.769c2.004,2.004,4.63,3.006,7.257,3.006c2.626,0,5.253-1.003,7.257-3.006
		l29.027-29.027c4.008-4.008,4.008-10.506,0-14.514l-21.769-21.769l23.646-23.646c4.008-4.008,4.008-10.506,0-14.514l-31.683-31.683
		l24.429-28.86c0.188-0.223,0.366-0.453,0.535-0.69c12.213-17.204,18.668-37.451,18.668-58.548v-51.088
		C459.478,217.372,489.475,191.988,489.475,162.748z M367.186,81.118c-24.066-4.968-50.36-8.275-77.833-9.756V33.714
		C328.916,40.516,359.791,58.954,367.186,81.118z M268.828,20.525v50.08c-4.257-0.087-8.532-0.135-12.828-0.135
		s-8.571,0.048-12.828,0.135v-50.08H268.828z M222.646,33.714v37.649c-27.473,1.481-53.767,4.788-77.833,9.756
		C152.208,58.954,183.083,40.516,222.646,33.714z M189.292,381.429c0-36.782,29.925-66.707,66.707-66.707
		s66.707,29.925,66.707,66.707s-29.925,66.707-66.707,66.707S189.292,418.212,189.292,381.429z M369.212,472.71l-14.513,14.513
		l-14.512-14.512l14.513-14.513L369.212,472.71z M371.088,412.782l-73.78,73.78l-20.441-20.441c33.225-8.189,59-35.461,65.01-69.479
		l5.991-7.078L371.088,412.782z M384.283,285.743c0,16.676-5.059,32.682-14.635,46.321l-27.97,33.043
		c-7.667-40.323-43.158-70.91-85.679-70.91s-78.012,30.588-85.679,70.91l-27.97-33.043c-9.576-13.638-14.635-29.645-14.635-46.321
		V172.754c0-9.431,7.673-17.105,17.105-17.105h222.357c9.431,0,17.105,7.673,17.105,17.105V285.743z M404.808,213.032v-40.278
		c0-20.749-16.881-37.63-37.63-37.63H144.821c-20.749,0-37.63,16.881-37.63,37.63v40.277
		c-39.896-13.694-64.142-32.459-64.142-50.283c0-33.939,87.455-71.753,212.95-71.753s212.95,37.815,212.95,71.753
		C468.95,180.573,444.704,199.338,404.808,213.032z"/>
	<path style="fill:#231F20;" d="M353.495,176.176H158.504c-5.668,0-10.263,4.595-10.263,10.263v53.879
		c0,13.676,11.126,24.802,24.802,24.802h53.409c10.217,0,18.604-7.987,19.246-18.045h20.604
		c0.641,10.058,9.028,18.045,19.246,18.045h53.409c13.676,0,24.802-11.126,24.802-24.802v-53.879
		C363.757,180.771,359.163,176.176,353.495,176.176z M343.232,240.318c0,2.358-1.918,4.276-4.276,4.276h-52.207
		c-0.641-10.058-9.028-18.045-19.246-18.045h-23.006c-10.217,0-18.604,7.987-19.246,18.045h-52.208
		c-2.357,0-4.276-1.918-4.276-4.276v-43.616h174.465V240.318z"/>
	<path style="fill:#231F20;" d="M242.356,403.162c-7.523-4.736-12.013-12.861-12.013-21.734c0-14.147,11.51-25.657,25.657-25.657
		c14.147,0,25.657,11.51,25.657,25.657c0,5.668,4.595,10.263,10.263,10.263c5.668,0,10.263-4.595,10.263-10.263
		c0-25.465-20.717-46.182-46.182-46.182s-46.182,20.717-46.182,46.182c0,15.97,8.076,30.587,21.603,39.104
		c1.698,1.069,3.589,1.579,5.458,1.579c3.409,0,6.744-1.698,8.695-4.797C248.593,412.518,247.153,406.183,242.356,403.162z"/>
	<path style="fill:#231F20;" d="M269.644,403.162c-0.215,0.135-0.431,0.268-0.65,0.396c-4.884,2.875-6.514,9.166-3.638,14.05
		c1.913,3.25,5.337,5.058,8.854,5.058c1.769,0,3.562-0.458,5.196-1.42c0.397-0.234,0.791-0.473,1.181-0.719
		c4.795-3.022,6.233-9.36,3.211-14.154C280.776,401.578,274.439,400.141,269.644,403.162z"/>
</g>
<g>
</g>
<g>
</g>
<g>
</g>
<g>
</g>
<g>
</g>
<g>
</g>
<g>
</g>
<g>
</g>
<g>
</g>
<g>
</g>
<g>
</g>
<g>
</g>
<g>
</g>
<g>
</g>
<g>
</g>
</svg>
